<?xml version="1.0" encoding="UTF-8"?>
<svg xmlns="http://www.w3.org/2000/svg" xmlns:xlink="http://www.w3.org/1999/xlink" width="512pt" height="512pt" viewBox="0 0 512 512" version="1.1">
<g id="surface1">
<path style="fill-rule:nonzero;fill:#3b4252;fill-opacity:1;stroke-width:0;stroke-linecap:butt;stroke-linejoin:miter;stroke:rgb(92.54902%,93.72549%,95.686275%);stroke-opacity:1;stroke-miterlimit:4;" d="M 18 8.000061 L 17.000061 8.000061 L 17.000061 6 C 17.000061 3.240051 14.759949 0.999939 12 0.999939 C 9.240051 0.999939 6.999939 3.240051 6.999939 6 L 6.999939 8.000061 L 6 8.000061 C 4.900085 8.000061 3.999939 8.900024 3.999939 9.999939 L 3.999939 20.000061 C 3.999939 21.099976 4.900085 21.999939 6 21.999939 L 18 21.999939 C 19.099915 21.999939 20.000061 21.099976 20.000061 20.000061 L 20.000061 9.999939 C 20.000061 8.900024 19.099915 8.000061 18 8.000061 Z M 12 17.000061 C 10.900085 17.000061 9.999939 16.099915 9.999939 15 C 9.999939 13.900085 10.900085 12.999939 12 12.999939 C 13.099915 12.999939 14.000061 13.900085 14.000061 15 C 14.000061 16.099915 13.099915 17.000061 12 17.000061 Z M 15.099976 8.000061 L 8.900024 8.000061 L 8.900024 6 C 8.900024 4.289978 10.289978 2.900024 12 2.900024 C 13.710022 2.900024 15.099976 4.289978 15.099976 6 Z M 15.099976 8.000061 " transform="matrix(21.333333,0,0,21.333333,0,0)"/>
</g>
</svg>
