<?xml version="1.0" encoding="UTF-8" standalone="no"?>
<svg
   xmlns:dc="http://purl.org/dc/elements/1.1/"
   xmlns:cc="http://creativecommons.org/ns#"
   xmlns:rdf="http://www.w3.org/1999/02/22-rdf-syntax-ns#"
   xmlns:svg="http://www.w3.org/2000/svg"
   xmlns="http://www.w3.org/2000/svg"
   xmlns:sodipodi="http://sodipodi.sourceforge.net/DTD/sodipodi-0.dtd"
   xmlns:inkscape="http://www.inkscape.org/namespaces/inkscape"
   height="512"
   viewBox="0 0 512 512"
   width="512"
   version="1.1"
   id="svg6"
   sodipodi:docname="refresh-24px.svg"
   inkscape:version="1.0.1 (3bc2e813f5, 2020-09-07)">
  <metadata
     id="metadata12">
    <rdf:RDF>
      <cc:Work
         rdf:about="">
        <dc:format>image/svg+xml</dc:format>
        <dc:type
           rdf:resource="http://purl.org/dc/dcmitype/StillImage" />
      </cc:Work>
    </rdf:RDF>
  </metadata>
  <defs
     id="defs10" />
  <sodipodi:namedview
     pagecolor="#ffffff"
     bordercolor="#666666"
     borderopacity="1"
     objecttolerance="10"
     gridtolerance="10"
     guidetolerance="10"
     inkscape:pageopacity="0"
     inkscape:pageshadow="2"
     inkscape:window-width="1248"
     inkscape:window-height="1373"
     id="namedview8"
     showgrid="false"
     inkscape:zoom="1.1197917"
     inkscape:cx="202.4766"
     inkscape:cy="281.07937"
     inkscape:window-x="0"
     inkscape:window-y="0"
     inkscape:window-maximized="1"
     inkscape:current-layer="svg6" />
  <path
     d="M 0,0 H 512 V 512 H 0 Z"
     fill="none"
     id="path2"
     style="stroke-width:21.3333" />
  <path
     d="M 376.53333,135.46667 C 345.6,104.53333 303.14667,85.33333 256,85.33333 161.70667,85.33333 85.54667,161.70667 85.54667,256 c 0,94.29333 76.16,170.66667 170.45333,170.66667 79.57333,0 145.92,-54.4 164.90667,-128 H 376.53333 C 359.04,348.37333 311.68,384 256,384 185.38667,384 128,326.61333 128,256 c 0,-70.61333 57.38667,-128 128,-128 35.41333,0 66.98667,14.72 90.02667,37.97333 l -68.69334,68.69334 H 426.66667 V 85.33333 Z"
     id="path4"
     style="fill:#3b4252;fill-opacity:1;stroke-width:21.3333" />
</svg>
