<?xml version="1.0" encoding="UTF-8" standalone="no"?>
<svg
   xmlns:dc="http://purl.org/dc/elements/1.1/"
   xmlns:cc="http://creativecommons.org/ns#"
   xmlns:rdf="http://www.w3.org/1999/02/22-rdf-syntax-ns#"
   xmlns:svg="http://www.w3.org/2000/svg"
   xmlns="http://www.w3.org/2000/svg"
   xmlns:sodipodi="http://sodipodi.sourceforge.net/DTD/sodipodi-0.dtd"
   xmlns:inkscape="http://www.inkscape.org/namespaces/inkscape"
   height="512"
   viewBox="0 0 512 512"
   width="512"
   version="1.1"
   id="svg6"
   sodipodi:docname="exit_to_app-24px.svg"
   inkscape:version="1.0.1 (3bc2e813f5, 2020-09-07)">
  <metadata
     id="metadata12">
    <rdf:RDF>
      <cc:Work
         rdf:about="">
        <dc:format>image/svg+xml</dc:format>
        <dc:type
           rdf:resource="http://purl.org/dc/dcmitype/StillImage" />
        <dc:title></dc:title>
      </cc:Work>
    </rdf:RDF>
  </metadata>
  <defs
     id="defs10" />
  <sodipodi:namedview
     pagecolor="#ffffff"
     bordercolor="#666666"
     borderopacity="1"
     objecttolerance="10"
     gridtolerance="10"
     guidetolerance="10"
     inkscape:pageopacity="0"
     inkscape:pageshadow="2"
     inkscape:window-width="1248"
     inkscape:window-height="1373"
     id="namedview8"
     showgrid="false"
     inkscape:zoom="0.79181228"
     inkscape:cx="160.80351"
     inkscape:cy="205.93159"
     inkscape:window-x="0"
     inkscape:window-y="0"
     inkscape:window-maximized="1"
     inkscape:current-layer="svg6"
     inkscape:document-rotation="0"
     fit-margin-top="0"
     fit-margin-left="0"
     fit-margin-right="0"
     fit-margin-bottom="0" />
  <path
     d="M 0,0 H 512 V 512 H 0 Z"
     fill="none"
     id="path2"
     style="stroke-width:21.3333" />
  <path
     d="m 215.25333,332.58667 30.08,30.08 L 352,256 245.33333,149.33333 l -30.08,30.08 55.04,55.25334 H 64 v 42.66666 H 270.29333 Z M 405.33333,64 H 106.66667 C 82.98667,64 64,83.2 64,106.66667 V 192 h 42.66667 V 106.66667 H 405.33333 V 405.33333 H 106.66667 V 320 H 64 v 85.33333 C 64,428.8 82.98667,448 106.66667,448 H 405.33333 C 428.8,448 448,428.8 448,405.33333 V 106.66667 C 448,83.2 428.8,64 405.33333,64 Z"
     id="path4"
     style="fill:#3b4252;fill-opacity:1;stroke-width:21.3333" />
</svg>
