<?xml version="1.0" encoding="UTF-8" standalone="no"?>
<svg
   xmlns:dc="http://purl.org/dc/elements/1.1/"
   xmlns:cc="http://creativecommons.org/ns#"
   xmlns:rdf="http://www.w3.org/1999/02/22-rdf-syntax-ns#"
   xmlns:svg="http://www.w3.org/2000/svg"
   xmlns="http://www.w3.org/2000/svg"
   xmlns:sodipodi="http://sodipodi.sourceforge.net/DTD/sodipodi-0.dtd"
   xmlns:inkscape="http://www.inkscape.org/namespaces/inkscape"
   height="512"
   viewBox="0 0 512 512"
   width="512"
   version="1.1"
   id="svg6"
   sodipodi:docname="pause_circle_outline-24px.svg"
   inkscape:version="1.0.1 (3bc2e813f5, 2020-09-07)">
  <metadata
     id="metadata12">
    <rdf:RDF>
      <cc:Work
         rdf:about="">
        <dc:format>image/svg+xml</dc:format>
        <dc:type
           rdf:resource="http://purl.org/dc/dcmitype/StillImage" />
        <dc:title />
      </cc:Work>
    </rdf:RDF>
  </metadata>
  <defs
     id="defs10" />
  <sodipodi:namedview
     pagecolor="#ffffff"
     bordercolor="#666666"
     borderopacity="1"
     objecttolerance="10"
     gridtolerance="10"
     guidetolerance="10"
     inkscape:pageopacity="0"
     inkscape:pageshadow="2"
     inkscape:window-width="1248"
     inkscape:window-height="1373"
     id="namedview8"
     showgrid="false"
     fit-margin-top="0"
     fit-margin-left="0"
     fit-margin-right="0"
     fit-margin-bottom="0"
     inkscape:zoom="1.1197917"
     inkscape:cx="151.69841"
     inkscape:cy="95.986033"
     inkscape:window-x="0"
     inkscape:window-y="0"
     inkscape:window-maximized="1"
     inkscape:current-layer="svg6"
     inkscape:document-rotation="0" />
  <path
     d="M 0,0 H 512 V 512 H 0 Z"
     fill="none"
     id="path2"
     style="stroke-width:21.3333" />
  <path
     d="m 192,341.33333 h 42.66667 V 170.66667 H 192 Z M 256,42.66667 C 138.24,42.66667 42.66667,138.24 42.66667,256 42.66667,373.76 138.24,469.33333 256,469.33333 373.76,469.33333 469.33333,373.76 469.33333,256 469.33333,138.24 373.76,42.66667 256,42.66667 Z m 0,384 C 161.92,426.66667 85.33333,350.08 85.33333,256 85.33333,161.92 161.92,85.33333 256,85.33333 350.08,85.33333 426.66667,161.92 426.66667,256 426.66667,350.08 350.08,426.66667 256,426.66667 Z m 21.33333,-85.33334 H 320 V 170.66667 h -42.66667 z"
     id="path4"
     style="fill:#3b4252;fill-opacity:1;stroke-width:21.3333" />
</svg>
