<?xml version="1.0" encoding="UTF-8" standalone="no"?>
<svg
   xmlns:dc="http://purl.org/dc/elements/1.1/"
   xmlns:cc="http://creativecommons.org/ns#"
   xmlns:rdf="http://www.w3.org/1999/02/22-rdf-syntax-ns#"
   xmlns:svg="http://www.w3.org/2000/svg"
   xmlns="http://www.w3.org/2000/svg"
   xmlns:sodipodi="http://sodipodi.sourceforge.net/DTD/sodipodi-0.dtd"
   xmlns:inkscape="http://www.inkscape.org/namespaces/inkscape"
   height="512"
   viewBox="0 0 512 512"
   width="512"
   version="1.1"
   id="svg6"
   sodipodi:docname="power_settings_new-24px.svg"
   inkscape:version="1.0.1 (3bc2e813f5, 2020-09-07)">
  <metadata
     id="metadata12">
    <rdf:RDF>
      <cc:Work
         rdf:about="">
        <dc:format>image/svg+xml</dc:format>
        <dc:type
           rdf:resource="http://purl.org/dc/dcmitype/StillImage" />
      </cc:Work>
    </rdf:RDF>
  </metadata>
  <defs
     id="defs10" />
  <sodipodi:namedview
     pagecolor="#ffffff"
     bordercolor="#666666"
     borderopacity="1"
     objecttolerance="10"
     gridtolerance="10"
     guidetolerance="10"
     inkscape:pageopacity="0"
     inkscape:pageshadow="2"
     inkscape:window-width="1248"
     inkscape:window-height="1373"
     id="namedview8"
     showgrid="false"
     inkscape:zoom="0.61458333"
     inkscape:cx="173.67582"
     inkscape:cy="100.28373"
     inkscape:window-x="0"
     inkscape:window-y="0"
     inkscape:window-maximized="1"
     inkscape:current-layer="svg6"
     inkscape:document-rotation="0" />
  <path
     d="M 0,0 H 512 V 512 H 0 Z"
     fill="none"
     id="path2"
     style="stroke-width:21.3333" />
  <path
     d="m 277.33333,64 h -42.66666 v 213.33333 h 42.66666 z m 103.04,46.29333 L 350.08,140.58667 C 383.78667,167.68 405.33333,209.28 405.33333,256 405.33333,338.56 338.56,405.33333 256,405.33333 173.44,405.33333 106.66667,338.56 106.66667,256 c 0,-46.72 21.54666,-88.32 55.04,-115.62667 l -30.08,-30.08 C 90.24,145.49333 64,197.54667 64,256 c 0,106.02667 85.97333,192 192,192 106.02667,0 192,-85.97333 192,-192 0,-58.45333 -26.24,-110.50667 -67.62667,-145.70667 z"
     id="path4"
     style="fill:#3b4252;fill-opacity:1;stroke-width:21.3333" />
</svg>
